<svg width="501" height="121" viewBox="0 0 501 121" fill="none" xmlns="http://www.w3.org/2000/svg">
<path d="M86.7155 33.7055L65.3105 12.1009C64.1046 10.885 62.458 10.1836 60.7419 10.1836H25.353C19.1842 10.1836 14.1982 15.2106 14.1982 21.4302V98.8468C14.1982 105.066 19.1842 110.093 25.353 110.093H30.8491V99.5483C30.8491 92.5572 36.4613 86.8754 43.4185 86.8754H43.9983V96.1813H43.4185C41.5632 96.1813 40.1022 97.6777 40.1022 99.5249V110.07H62.7131V99.5249C62.7131 97.6543 61.2057 96.1813 59.3505 96.1813H58.7939V86.8754H59.3505C66.2845 86.8754 71.943 92.5338 71.943 99.5483V110.093H77.4392C83.6079 110.093 88.5939 105.066 88.5939 98.8468V38.3117C88.5939 36.5815 87.9214 34.9214 86.7155 33.7055V33.7055ZM56.011 97.2335C56.011 99.8055 53.9471 101.886 51.3961 101.886C48.8451 101.886 46.7811 99.8055 46.7811 97.2335V71.4669C46.7811 68.8949 48.8451 66.8139 51.3961 66.8139C53.9471 66.8139 56.011 68.8949 56.011 71.4669V97.2335ZM71.943 70.1108C71.943 77.1019 66.2845 82.807 59.3505 82.807H58.7939V73.5011H59.3505C61.2057 73.5011 62.7131 71.9813 62.7131 70.1108V63.7042C62.7131 61.1322 64.7771 59.0512 67.3281 59.0512C69.8791 59.0512 71.943 61.1322 71.943 63.7042V70.1108V70.1108ZM71.943 44.4143C71.943 47.0097 69.8791 49.0673 67.3281 49.0673C64.7771 49.0673 62.7131 47.0097 62.7131 44.4143V38.0078C62.7131 36.1372 61.2057 34.6642 59.3505 34.6642H43.4185C41.5632 34.6642 40.1022 36.1606 40.1022 38.0078V70.1108C40.1022 71.9813 41.5864 73.5011 43.4185 73.5011H43.9983V82.807H43.4185C36.4845 82.807 30.8491 77.1019 30.8491 70.1108V38.0311C30.8491 31.04 36.4613 25.3583 43.4185 25.3583H59.3505C66.2845 25.3583 71.943 31.0166 71.943 38.0311V44.4377V44.4143Z" fill="white"/>
<path d="M149.878 93.0688C149.943 93.6699 149.599 94.2496 149.019 94.4642C146.916 95.1941 144.726 95.7308 142.45 96.0743C139.831 96.4607 136.804 96.6539 133.348 96.6539C128.776 96.6539 125.019 96.1602 122.099 95.1941C119.223 94.1422 116.968 92.4463 115.337 90.1063C113.705 87.7019 112.568 84.4389 111.902 80.3171C111.258 76.1309 110.915 70.9143 110.915 64.6458C110.915 58.3772 111.237 52.9889 111.902 48.8886C112.61 44.7024 113.834 41.4393 115.53 39.0994C117.226 36.695 119.566 34.9776 122.571 34.0116C125.641 33.024 129.548 32.5518 134.314 32.5518C135.688 32.5518 137.255 32.6591 139.016 32.8523C140.84 32.9811 142.601 33.2173 144.297 33.5393C145.542 33.7325 146.658 33.9686 147.603 34.2477C148.225 34.4409 148.633 35.042 148.526 35.686L147.646 41.2891C147.538 42.019 146.83 42.4912 146.1 42.341C144.833 42.0834 143.481 41.8472 142.043 41.654C140.089 41.3964 138.221 41.2032 136.461 41.0744C134.701 40.9456 133.262 40.8812 132.146 40.8812C128.368 40.8812 125.62 41.332 123.924 42.2551C122.228 43.1138 121.369 45.1318 121.369 48.3304V86.0489C121.369 86.65 121.756 87.1653 122.335 87.3155C123.752 87.659 125.255 87.9381 126.843 88.1528C128.861 88.4104 130.922 88.5392 133.005 88.5392C135.753 88.5392 138.457 88.303 141.119 87.8522C143.352 87.4873 145.477 87.015 147.538 86.4783C148.29 86.2851 149.041 86.7788 149.148 87.5517L149.814 93.0688H149.878Z" fill="white"/>
<path d="M159.152 93.8836V32.057C159.152 31.3915 159.667 30.8333 160.333 30.7689L167.353 30.1893C168.104 30.1249 168.748 30.726 168.748 31.4774V47.1272C168.748 48.1147 169.8 48.7158 170.659 48.2435C172.204 47.3634 173.857 46.6979 175.596 46.247C178.151 45.603 181.113 45.2595 184.505 45.2595C189.078 45.2595 192.534 45.968 194.874 47.4063C197.214 48.7802 198.395 50.8411 198.395 53.5675V93.8836C198.395 94.592 197.815 95.1717 197.107 95.1717H189.894C189.185 95.1717 188.605 94.592 188.605 93.8836V54.5765C188.605 53.868 188.026 53.2884 187.317 53.2884H177.249C174.05 53.2884 171.861 53.6748 170.702 54.4691C169.521 55.242 168.941 56.7447 168.941 58.9773V93.9051C168.941 94.6135 168.362 95.1931 167.653 95.1931H160.44C159.732 95.1931 159.152 94.6135 159.152 93.9051V93.8836Z" fill="white"/>
<path d="M247.856 50.9272C246.74 48.9092 244.851 47.4709 242.189 46.6122C239.57 45.6891 236.049 45.2383 231.627 45.2383C229.415 45.2383 227.097 45.3671 224.671 45.6247C222.267 45.8179 219.97 46.1399 217.823 46.6122C216.106 46.9772 214.56 47.385 213.186 47.8144C212.585 48.0076 212.22 48.6302 212.327 49.2527L213.164 53.9541C213.293 54.684 214.023 55.1348 214.753 54.9631C217.157 54.362 219.562 53.8897 221.923 53.5462C224.736 53.1598 227.397 52.9666 229.952 52.9666C233.602 52.9666 236.586 53.2457 238.883 53.7824C239.462 53.9112 239.827 54.4479 239.827 55.0275V65.8686H238.367C232.163 65.8686 227.183 66.0618 223.383 66.4482C219.605 66.7703 216.728 67.5002 214.775 68.595C212.885 69.6469 211.619 71.214 210.953 73.2964C210.309 75.3143 209.966 78.0193 209.966 81.4111C209.966 86.6922 211.104 90.4919 213.401 92.7675C215.741 94.9786 219.605 96.095 224.95 96.095C228.6 96.095 231.841 95.6441 234.632 94.721C237.015 93.9053 239.226 92.7245 241.266 91.1789C241.91 90.6851 242.811 90.8569 243.198 91.5653L244.743 94.4205C244.958 94.8284 245.409 95.086 245.881 95.086H248.328C249.037 95.086 249.616 94.5064 249.616 93.7979V58.9561C249.616 55.5642 249.037 52.8807 247.856 50.9272V50.9272ZM238.174 87.4435C237.122 88.2164 235.083 88.6242 232.013 88.6242H220.184C219.476 88.6242 218.896 88.0446 218.896 87.3362V77.9549C218.896 75.7437 219.454 74.241 220.571 73.4467C221.687 72.6738 223.769 72.266 226.839 72.266H238.561C239.269 72.266 239.849 72.8456 239.849 73.554V82.9353C239.849 85.1465 239.291 86.6492 238.174 87.4435V87.4435Z" fill="white"/>
<path d="M265.696 46.7645L272.909 45.6912C273.681 45.5838 274.39 46.1849 274.39 46.9577V93.9073C274.39 94.6157 273.81 95.1954 273.102 95.1954H265.889C265.18 95.1954 264.601 94.6157 264.601 93.9073V48.0311C264.601 47.3871 265.073 46.8504 265.696 46.7645V46.7645Z" fill="white"/>
<path d="M269.581 37.725C267.177 37.725 265.546 37.3386 264.687 36.5443C263.914 35.6856 263.506 34.1399 263.506 31.8429C263.506 29.5459 263.935 27.8929 264.773 27.0556C265.631 26.1969 267.22 25.7891 269.56 25.7891C271.9 25.7891 273.381 26.2184 274.154 27.0556C275.013 27.9144 275.421 29.503 275.421 31.8429C275.421 34.1829 275.034 35.6856 274.24 36.5443C273.467 37.3171 271.9 37.725 269.539 37.725H269.581Z" fill="white"/>
<path d="M289.89 93.8848V47.5148C289.89 46.8064 290.47 46.2268 291.178 46.2268H293.625C294.098 46.2268 294.527 46.4844 294.763 46.8923L296.33 49.7904C296.695 50.4774 297.597 50.6491 298.241 50.1983C300.388 48.6526 302.706 47.4719 305.175 46.7205C308.116 45.733 311.465 45.2607 315.265 45.2607C319.837 45.2607 323.293 45.9692 325.633 47.4075C327.973 48.7814 329.154 50.8423 329.154 53.5687V93.8848C329.154 94.5932 328.574 95.1729 327.866 95.1729H320.653C319.944 95.1729 319.365 94.5932 319.365 93.8848V54.5777C319.365 53.8692 318.785 53.2896 318.077 53.2896H308.009C304.81 53.2896 302.62 53.676 301.461 54.4703C300.302 55.2646 299.701 56.7459 299.701 58.9785V93.9063C299.701 94.6147 299.121 95.1943 298.413 95.1943H291.199C290.491 95.1943 289.911 94.6147 289.911 93.9063L289.89 93.8848Z" fill="white"/>
<path d="M342.185 93.8867V35.2802C342.185 34.5718 342.764 33.9922 343.473 33.9922H355.473C356.181 33.9922 356.761 34.5718 356.761 35.2802V81.8434C356.761 82.5518 357.341 83.1315 358.049 83.1315H376.125C376.833 83.1315 377.413 83.7111 377.413 84.4195V93.8867C377.413 94.5951 376.833 95.1748 376.125 95.1748H343.473C342.764 95.1748 342.185 94.5951 342.185 93.8867V93.8867Z" fill="white"/>
<path d="M386.022 47.643L398.022 46.0329C398.795 45.9256 399.482 46.5267 399.482 47.2995V93.8627C399.482 94.5711 398.902 95.1508 398.194 95.1508H386.193C385.485 95.1508 384.905 94.5711 384.905 93.8627V48.9311C384.905 48.287 385.378 47.7504 386.022 47.6645V47.643Z" fill="white"/>
<path d="M392.247 39.873C389.113 39.873 386.966 39.3149 385.785 38.1985C384.669 37.0822 384.111 34.9784 384.111 31.8441C384.111 28.7099 384.669 26.4987 385.785 25.3824C386.966 24.2017 389.156 23.6221 392.333 23.6221C395.51 23.6221 397.485 24.2017 398.601 25.3824C399.782 26.4987 400.362 28.6455 400.362 31.8441C400.362 35.0428 399.804 37.1037 398.687 38.1985C397.571 39.3149 395.424 39.873 392.226 39.873H392.247Z" fill="white"/>
<path d="M410.752 60.3325C410.752 54.9871 412.384 51.0586 415.647 48.5898C418.91 46.0351 423.997 44.7686 430.91 44.7686C434.238 44.7686 437.436 44.9618 440.506 45.3482C443.211 45.6273 445.809 46.0566 448.32 46.6362C448.986 46.7865 449.415 47.452 449.308 48.1175L447.977 55.8244C447.848 56.5543 447.14 57.0265 446.41 56.8548C445.143 56.5542 443.748 56.3181 442.266 56.1249C440.248 55.8673 438.145 55.7385 435.998 55.7385C434.238 55.7385 432.477 55.8458 430.717 56.039C429.45 56.1464 428.312 56.2966 427.304 56.4898C426.702 56.6187 426.316 57.1553 426.316 57.7564V63.2307C426.316 63.8747 426.81 64.4329 427.475 64.4973C432.048 65.0554 435.869 65.7209 438.96 66.5152C442.288 67.288 444.907 68.3185 446.796 69.5421C448.685 70.7872 450.016 72.3114 450.811 74.1362C451.583 75.8965 451.991 78.0862 451.991 80.6838C451.991 84.3977 451.24 87.4676 449.737 89.8934C448.234 92.2334 445.83 93.9722 442.503 95.0885C439.175 96.1405 434.839 96.6557 429.493 96.6557C426.166 96.6557 422.795 96.3981 419.403 95.8828C416.484 95.432 413.672 94.788 411.01 93.9722C410.387 93.779 410.001 93.135 410.129 92.491L411.697 84.183C411.847 83.3887 412.663 82.9594 413.414 83.2384C417.858 84.8914 422.667 85.7072 427.84 85.7072C429.214 85.7072 430.545 85.6428 431.855 85.514C432.949 85.3637 434.173 85.1491 435.526 84.8485C436.127 84.7197 436.556 84.183 436.556 83.5819V77.9359C436.556 77.2919 436.062 76.7338 435.418 76.6479C430.524 76.0468 426.509 75.4028 423.353 74.7373C420.026 73.9644 417.45 72.9769 415.625 71.7962C413.8 70.5511 412.534 69.0269 411.804 67.2022C411.16 65.3774 410.816 63.0804 410.816 60.354L410.752 60.3325Z" fill="white"/>
<path d="M487.198 54.5353V47.5154C487.198 46.8069 486.619 46.2273 485.91 46.2273H480.651C479.942 46.2273 479.362 45.6477 479.362 44.9393V35.0642C479.362 34.227 478.568 33.6044 477.752 33.8191L465.838 36.8031C465.258 36.9533 464.872 37.4686 464.872 38.0482V44.9607C464.872 45.6692 464.292 46.2488 463.584 46.2488H460.192C459.483 46.2488 458.904 46.8284 458.904 47.5368V54.5567C458.904 55.2652 459.483 55.8448 460.192 55.8448H463.584C464.292 55.8448 464.872 56.4244 464.872 57.1328V87.4665C464.872 90.5364 465.645 92.7905 467.212 94.2288C468.843 95.6671 471.334 96.3756 474.661 96.3756C476.035 96.3756 477.559 96.2682 479.255 96.075C480.736 95.9033 482.346 95.6457 484.064 95.3022C484.622 95.1948 485.051 94.7011 485.094 94.1215L485.695 86.5219C485.76 85.792 485.202 85.1695 484.472 85.1265C483.742 85.0836 483.033 85.0407 482.411 84.9977H482.325C481.724 84.9119 481.101 84.826 480.457 84.7401C479.813 84.6543 479.32 84.1176 479.32 83.4521V57.1114C479.32 56.4029 479.899 55.8233 480.608 55.8233H485.867C486.576 55.8233 487.155 55.2437 487.155 54.5353H487.198Z" fill="white"/>
</svg>
