<svg xmlns="http://www.w3.org/2000/svg" width="147" height="25" viewBox="0 0 147 25" fill="none"><path d="M0 1.96341C0 0.876945 1.30831 0.331802 2.07543 1.09863L23.2771 22.2922C24.0457 23.0605 23.5034 24.3777 22.4183 24.3777H1.21669C0.544732 24.3777 0 23.8312 0 23.157V1.96341Z" fill="white"></path><path d="M22.8364 15.714C22.8364 16.8 21.5292 17.3453 20.7618 16.5796L7.98724 3.83347C7.21749 3.06544 7.7596 1.74716 8.84519 1.74716L21.6197 1.74716C22.2917 1.74716 22.8364 2.2937 22.8364 2.9679V15.714Z" fill="#237BFF"></path><path d="M65.6603 15.3274C65.379 14.3075 64.7636 13.6115 63.7615 13.2936C63.697 13.2696 63.6325 13.2456 63.5681 13.2216C63.5681 13.1976 63.5681 13.1736 63.5739 13.1496C63.6911 13.1256 63.8142 13.0956 63.9314 13.0776C65.1797 12.8496 65.9885 12.1236 66.2874 10.8517C66.5218 9.86779 66.5042 8.87185 66.3342 7.87592C66.1819 6.99398 65.8185 6.22003 65.0801 5.67407C64.3944 5.1701 63.5974 4.97812 62.7828 4.87012C61.3176 4.67214 59.8408 4.75613 58.3698 4.76813C57.4438 4.77413 56.5237 4.85213 55.5978 4.91812C55.1699 4.94812 55.0469 5.11611 55.0469 5.56008V19.7791C55.0469 20.2351 55.1758 20.3671 55.6212 20.3671C56.3303 20.3671 57.0453 20.3671 57.7544 20.3671C58.2116 20.3671 58.3288 20.2471 58.3288 19.7851C58.3288 18.0692 58.3288 16.3473 58.3288 14.6315C58.3288 14.3795 58.405 14.3195 58.6394 14.3255C59.3426 14.3435 60.0459 14.3375 60.7492 14.3435C61.5989 14.3435 62.0502 14.6795 62.3139 15.5074C62.3432 15.6034 62.3667 15.7054 62.3901 15.8014C62.73 17.1813 63.0641 18.5552 63.404 19.9351C63.486 20.2651 63.6032 20.3731 63.9197 20.3731C64.746 20.3791 65.5724 20.3851 66.3987 20.3731C66.8031 20.3731 66.9555 20.1391 66.8441 19.7311C66.4456 18.2612 66.0529 16.7973 65.6544 15.3334L65.6603 15.3274ZM62.982 10.6417C62.859 11.1757 62.5249 11.5177 62.0033 11.6377C61.7103 11.7037 61.3997 11.7637 61.1008 11.7697C60.2686 11.7877 59.4305 11.7697 58.5984 11.7817C58.3932 11.7817 58.3346 11.7157 58.3346 11.5057C58.3464 10.8457 58.3346 10.1858 58.3346 9.52581C58.3346 8.86585 58.3346 8.2059 58.3346 7.54594C58.3346 7.37195 58.3815 7.30596 58.5573 7.31196C59.4071 7.31796 60.2569 7.29996 61.1067 7.32396C61.4231 7.32996 61.7455 7.39595 62.0561 7.47395C62.5366 7.59394 62.8472 7.91792 62.9703 8.40988C63.152 9.15383 63.1461 9.89778 62.9762 10.6417H62.982Z" fill="white"></path><path d="M146.998 12.2333C146.998 11.9393 146.981 11.6393 146.94 11.3454C146.799 10.1934 146.125 9.4375 145.017 9.17351C144.314 9.00552 143.605 9.02352 142.902 9.16151C141.735 9.3955 140.716 9.96546 139.772 10.6854C139.702 10.7394 139.631 10.7874 139.52 10.8654C139.532 10.7454 139.532 10.6854 139.538 10.6194C139.585 10.1574 139.667 9.69548 139.673 9.23351C139.69 7.9136 139.678 6.59369 139.678 5.27378C139.678 4.9018 139.532 4.75781 139.163 4.75781H136.983C136.572 4.75781 136.449 4.8778 136.449 5.30378C136.449 10.1334 136.449 14.9691 136.449 19.8048C136.449 20.2308 136.584 20.3748 136.994 20.3748C137.698 20.3748 138.401 20.3748 139.104 20.3748C139.544 20.3748 139.684 20.2308 139.684 19.7808V16.025C139.684 15.0171 139.684 14.0092 139.684 13.0013C139.684 12.9113 139.731 12.7673 139.796 12.7373C140.264 12.5093 140.739 12.2873 141.226 12.1013C141.788 11.8853 142.374 11.7893 142.978 11.8733C143.353 11.9273 143.611 12.1253 143.681 12.5153C143.722 12.7373 143.751 12.9653 143.751 13.1932C143.751 15.3771 143.751 17.5609 143.751 19.7448C143.751 20.2548 143.863 20.3688 144.367 20.3688H146.354C146.893 20.3688 146.998 20.2608 146.998 19.7208C146.998 17.225 146.998 14.7291 146.998 12.2273V12.2333Z" fill="white"></path><path d="M40.5236 8.08594C40.0723 6.82003 39.2694 5.89009 37.9918 5.50012C37.3237 5.29613 36.6205 5.14014 35.9289 5.13414C34.1122 5.12214 32.2954 5.19414 30.4786 5.24213C30.0039 5.25413 29.8047 5.50012 29.8047 5.99208V19.4792C29.8047 20.0791 29.9629 20.2711 30.5607 20.3011C31.7211 20.3611 32.8873 20.4211 34.0536 20.4451C35.1085 20.4691 36.1692 20.4811 37.2182 20.2711C38.4958 20.0131 39.5449 19.4192 40.1954 18.2193C40.5529 17.5593 40.7521 16.8453 40.8811 16.1134C41.1565 14.5895 41.1624 13.0476 41.1038 11.5117C41.0569 10.3538 40.9221 9.20187 40.5294 8.09794L40.5236 8.08594ZM38.5955 15.9274C38.5662 16.0594 38.5369 16.1914 38.5017 16.3234C38.0797 17.8533 37.1479 18.5672 35.4835 18.6212C35.0557 18.6332 34.6279 18.6212 34.1942 18.6212V18.5912C33.6668 18.5912 33.1335 18.5912 32.606 18.5912C32.2134 18.5852 31.9789 18.3512 31.9438 17.9493C31.9379 17.8713 31.9379 17.7993 31.9379 17.7213V7.79796C31.9379 7.68997 31.9379 7.57598 31.9555 7.46798C32.0024 7.162 32.2192 6.92802 32.524 6.92802C33.6551 6.92202 34.792 6.86802 35.9172 6.95802C37.3648 7.07201 38.1794 7.87595 38.5251 9.32186C38.7361 10.1978 38.8182 11.0917 38.8299 11.9857C38.8475 13.3056 38.8651 14.6255 38.5896 15.9274H38.5955Z" fill="white"></path><path d="M114.188 11.7277C114.042 10.9178 113.684 10.2278 112.998 9.75386C112.295 9.26789 111.486 9.1179 110.666 9.0879C108.726 9.02191 106.804 9.24389 104.887 9.51388C104.577 9.55587 104.448 9.72386 104.483 10.0358C104.536 10.4918 104.6 10.9418 104.671 11.3917C104.712 11.6497 104.893 11.7817 105.151 11.7637C105.591 11.7337 106.024 11.6917 106.464 11.6797C107.536 11.6437 108.609 11.5897 109.681 11.6017C110.613 11.6137 111.035 12.0517 111.059 12.9336C111.07 13.4136 110.9 13.5876 110.426 13.5876C109.336 13.5876 108.245 13.5636 107.155 13.5996C106.663 13.6176 106.159 13.6836 105.696 13.8276C104.712 14.1396 104.061 14.8235 103.944 15.9034C103.874 16.5394 103.874 17.1874 103.915 17.8293C103.985 18.9872 104.553 19.8452 105.602 20.2771C107.284 20.9731 108.878 20.7031 110.338 19.6292C110.707 19.3592 111.035 19.0172 111.422 18.6813C111.504 19.1132 111.574 19.5212 111.656 19.9232C111.727 20.2771 111.844 20.3791 112.201 20.3791C112.711 20.3791 113.227 20.3791 113.737 20.3791C114.194 20.3791 114.311 20.2531 114.311 19.7912C114.311 17.5293 114.317 15.2735 114.311 13.0116C114.311 12.5797 114.27 12.1477 114.194 11.7277H114.188ZM110.414 17.6073C109.804 17.9193 109.183 18.1893 108.492 18.2253C108.275 18.2373 108.046 18.2133 107.829 18.1653C107.407 18.0633 107.144 17.7813 107.109 17.3373C107.079 16.9834 107.073 16.6294 107.109 16.2754C107.161 15.7775 107.46 15.5075 107.952 15.4775C108.322 15.4535 108.697 15.4655 109.066 15.4595C109.529 15.4535 109.992 15.4355 110.455 15.4355C110.894 15.4355 111.053 15.6035 111.059 16.0414V16.4734C111.24 17.0854 110.883 17.3613 110.414 17.6013V17.6073Z" fill="white"></path><path d="M100.132 9.3883C98.4621 8.93833 96.7801 8.94433 95.0981 9.3403C93.5275 9.71228 92.5664 10.7382 92.203 12.3401C91.8338 13.972 91.8163 15.6159 92.1913 17.2478C92.4902 18.5497 93.1876 19.5396 94.4125 20.0856C95.0395 20.3676 95.7018 20.5115 96.3757 20.5775C97.501 20.6915 98.6262 20.6675 99.7397 20.4995C100.49 20.3916 101.222 20.1696 101.955 19.9716C102.242 19.8936 102.318 19.7256 102.283 19.4556C102.242 19.1616 102.201 18.8677 102.148 18.5797C102.055 18.0697 101.762 17.8417 101.258 17.8777C100.554 17.9197 99.8569 17.9917 99.1536 18.0037C98.4386 18.0157 97.7178 18.0037 97.0028 17.9377C96.3289 17.8717 95.8424 17.4878 95.5963 16.8158C95.397 16.2638 95.6666 15.8439 96.2468 15.8439C96.8153 15.8439 97.3896 15.8439 97.9581 15.8439C98.4386 15.8439 98.9192 15.8559 99.3998 15.8439C99.7866 15.8259 100.173 15.7959 100.554 15.7239C101.597 15.5319 102.312 14.9379 102.506 13.84C102.594 13.324 102.617 12.7721 102.564 12.2501C102.412 10.7322 101.568 9.77227 100.138 9.3883H100.132ZM99.4408 13.174C99.3646 13.738 99.1243 13.954 98.5676 13.978C98.1046 14.002 97.6416 13.978 97.1786 13.978V13.99C96.7567 13.99 96.3347 13.99 95.9186 13.99C95.5084 13.99 95.3267 13.786 95.3736 13.366C95.4029 13.096 95.4439 12.8261 95.5084 12.5681C95.649 12.0221 95.9655 11.6381 96.5281 11.5062C97.2548 11.3322 97.9815 11.3142 98.7082 11.5242C99.0833 11.6321 99.3353 11.8841 99.4056 12.2681C99.4584 12.5621 99.476 12.8741 99.4408 13.168V13.174Z" fill="white"></path><path d="M76.3255 9.37578C74.6611 8.92581 72.9733 8.93181 71.2971 9.33378C69.7734 9.69975 68.8181 10.6957 68.4431 12.2496C68.0621 13.8215 68.0504 15.4174 68.3552 17.0073C68.5134 17.8412 68.8299 18.6092 69.4218 19.2331C70.1778 20.0191 71.133 20.355 72.1645 20.517C73.2663 20.691 74.3739 20.655 75.4757 20.553C76.3899 20.469 77.2925 20.325 78.1598 19.9771C78.4646 19.8571 78.5349 19.7131 78.4821 19.3831C78.447 19.1311 78.4118 18.8791 78.3708 18.6331C78.2887 18.0872 77.984 17.8352 77.4507 17.8712C76.7474 17.9192 76.05 17.9852 75.3468 17.9972C74.6318 18.0092 73.9109 17.9972 73.196 17.9252C72.5454 17.8592 72.059 17.4992 71.8129 16.8453C71.596 16.2753 71.8715 15.8373 72.4692 15.8373C73.0319 15.8373 73.5945 15.8373 74.1571 15.8373C74.6611 15.8373 75.1651 15.8613 75.6691 15.8253C76.1262 15.7953 76.5951 15.7413 77.0405 15.6334C77.943 15.4114 78.5114 14.8114 78.6931 13.8815C78.7752 13.4735 78.7986 13.0415 78.7928 12.6216C78.7517 10.9237 77.9254 9.81375 76.3196 9.37578H76.3255ZM74.5146 13.9895C74.1454 13.9895 73.7703 13.9895 73.4011 13.9895C72.9791 13.9895 72.5572 13.9895 72.1411 13.9895C71.725 13.9895 71.5491 13.7975 71.5902 13.3715C71.6195 13.0895 71.6664 12.8015 71.7425 12.5256C71.8891 11.9916 72.2172 11.6316 72.7623 11.4996C73.4655 11.3316 74.1688 11.3196 74.8721 11.5056C75.3292 11.6256 75.5812 11.9376 75.6632 12.4116C75.6808 12.5136 75.6984 12.6096 75.7043 12.7115C75.7453 13.6355 75.4229 13.9835 74.5204 13.9955L74.5146 13.9895Z" fill="white"></path><path d="M89.0101 14.5175C88.7464 14.3795 88.4768 14.2415 88.1896 14.1635C87.1816 13.8935 86.1677 13.6535 85.1597 13.3895C84.7319 13.2756 84.2982 13.1436 83.888 12.9756C83.5715 12.8496 83.4836 12.5676 83.5364 12.1116C83.5715 11.7997 83.7063 11.6377 84.0345 11.5717C84.31 11.5177 84.5913 11.4817 84.8667 11.4817C86.3611 11.4817 87.8614 11.5057 89.3559 11.5177C89.6489 11.5177 89.8189 11.4217 89.854 11.1757C89.9126 10.7257 89.9536 10.2698 89.9888 9.81379C90.0064 9.6098 89.8833 9.47781 89.6958 9.42982C89.5903 9.39982 89.4848 9.38782 89.3793 9.36982C87.7853 9.14783 86.1912 9.04584 84.5854 9.06984C83.7005 9.08184 82.8155 9.15383 81.9775 9.48981C81.1687 9.80779 80.6413 10.3898 80.5006 11.2777C80.4362 11.6677 80.401 12.0696 80.4186 12.4656C80.4948 14.0975 81.0867 14.9074 82.5987 15.4114C83.3547 15.6574 84.1341 15.8194 84.896 16.0294C85.5348 16.2034 86.1736 16.3773 86.8007 16.5753C87.1582 16.6893 87.3047 16.9473 87.293 17.3373C87.2812 17.8052 87.0117 18.0932 86.4608 18.1232C85.5114 18.1832 84.562 18.2012 83.6126 18.2312C83.6126 18.2312 83.6126 18.2012 83.6126 18.1832C82.8272 18.1832 82.0419 18.1832 81.2566 18.1832C80.9226 18.1832 80.7878 18.2972 80.7409 18.6272C80.694 18.9812 80.6589 19.3291 80.6237 19.6891C80.5827 20.0851 80.694 20.2291 81.0808 20.2891C82.8155 20.5651 84.5678 20.6431 86.3201 20.5891C87.123 20.5651 87.92 20.4871 88.6878 20.2171C89.5082 19.9291 90.0474 19.3651 90.2642 18.5012C90.4283 17.8292 90.4401 17.1453 90.3522 16.4613C90.2408 15.5674 89.7778 14.9254 89.0042 14.5235L89.0101 14.5175Z" fill="white"></path><path d="M134.459 18.2097C134.418 17.9397 134.237 17.8137 133.961 17.8317C133.738 17.8497 133.516 17.8857 133.293 17.8857C132.32 17.9097 131.341 17.9697 130.374 17.9217C129.366 17.8737 128.833 17.3818 128.622 16.3978C128.394 15.3719 128.405 14.328 128.622 13.296C128.798 12.4321 129.32 11.8981 130.193 11.8081C130.837 11.7421 131.494 11.7301 132.144 11.7001C132.144 11.7001 132.144 11.7481 132.144 11.7721C132.701 11.7721 133.252 11.7721 133.803 11.7721C134.055 11.7721 134.207 11.6581 134.254 11.4002C134.313 11.0402 134.371 10.6802 134.436 10.3262C134.535 9.76227 134.471 9.63628 133.932 9.49229C132.121 8.99432 130.292 8.91033 128.452 9.2583C127.057 9.52228 125.991 10.2662 125.54 11.7001C125.334 12.3541 125.211 13.05 125.153 13.734C125.036 15.0959 125.071 16.4578 125.463 17.7837C125.838 19.0436 126.63 19.8776 127.86 20.2796C128.868 20.6035 129.906 20.6515 130.949 20.6215C132.092 20.5855 133.223 20.4535 134.307 20.0456C134.617 19.9256 134.688 19.8236 134.647 19.4936C134.594 19.0676 134.535 18.6417 134.465 18.2157L134.459 18.2097Z" fill="white"></path><path d="M123.779 9.06081C122.648 9.04881 121.64 9.45078 120.696 10.0447C120.257 10.3207 119.846 10.6447 119.383 10.9747C119.307 10.5607 119.237 10.1827 119.167 9.80476C119.102 9.44478 118.991 9.34879 118.633 9.34879C118.129 9.34879 117.625 9.34879 117.121 9.34879C116.682 9.34879 116.57 9.46878 116.57 9.92475V19.7761C116.57 20.2441 116.688 20.364 117.139 20.37C117.819 20.37 118.498 20.37 119.172 20.37C119.671 20.37 119.782 20.2561 119.782 19.7401V13.2665C119.782 13.1825 119.764 13.0925 119.788 13.0145C119.805 12.9485 119.858 12.8586 119.917 12.8406C121.118 12.4446 122.319 12.0246 123.615 12.1086C123.908 12.1266 124.048 11.9766 124.078 11.6646C124.148 10.9807 124.218 10.3027 124.277 9.61877C124.312 9.1988 124.189 9.06681 123.773 9.06081H123.779Z" fill="white"></path><path d="M52.5316 18.4721C52.432 18.4601 52.3323 18.4601 52.2327 18.4601C50.7383 18.4601 49.238 18.4601 47.7435 18.4601C46.7297 18.4601 46.3077 18.0282 46.3077 16.9962V11.4886C46.3077 9.65872 46.3077 7.83484 46.3077 6.00497C46.3077 5.555 46.0498 5.29702 45.6162 5.29102C45.3817 5.29102 45.1532 5.29102 44.9246 5.29102C44.3972 5.29102 44.1745 5.525 44.1745 6.06496V11.7766C44.1745 13.6784 44.1686 15.5863 44.1745 17.4882C44.1745 18.3941 44.4558 19.1921 45.1942 19.75C45.6806 20.122 46.2608 20.254 46.8527 20.26C48.1245 20.272 49.3962 20.26 50.6679 20.248C51.2892 20.242 51.9045 20.2 52.5257 20.158C52.8891 20.134 53.1118 19.87 53.1118 19.5041C53.1118 18.8141 52.9477 18.5201 52.5257 18.4661L52.5316 18.4721Z" fill="white"></path></svg>