<svg width="408" height="78" viewBox="0 0 408 78" fill="none" xmlns="http://www.w3.org/2000/svg">
<path d="M4.4774 2.21063L10.0602 9.94393C10.4305 10.4709 11.1283 10.656 11.7122 10.3712C13.1364 9.67334 16.113 8.49127 20.4994 7.9928C21.5818 7.86463 22.0803 6.59711 21.3539 5.78533C19.9013 4.14752 17.2381 1.95428 12.8516 0.91463C9.37658 0.0743643 6.96972 0.00315537 5.4316 0.11709C4.40619 0.188299 3.87925 1.38461 4.4774 2.21063Z" fill="#fefffc"/>
<path d="M68.9066 31.6341C69.0205 34.9097 66.101 35.7642 62.1133 35.4082C62.0705 35.4082 62.0278 35.4082 61.9993 35.4082C61.7572 35.3655 61.5294 35.337 61.273 35.3227C61.1875 35.3227 61.1306 35.3227 61.0594 35.2943C54.9212 34.5964 47.9569 34.5964 41.3345 36.3054C27.6054 39.8516 16.625 48.2401 12.0818 52.1281C10.8143 53.2104 8.90591 53.0395 7.85202 51.7435L0.674155 42.9136C-0.422463 41.5607 -0.151869 39.5953 1.27231 38.5984C6.52753 34.9525 19.0603 26.9628 31.8352 24.2996C33.6012 23.9293 35.4811 23.7442 37.4607 23.7014C38.2583 25.3677 40.1239 26.2222 41.8757 25.6668C43.7983 25.0402 44.838 22.9466 44.1971 20.967C43.5562 18.9874 41.4911 17.905 39.5685 18.5174C38.5431 18.845 37.7883 19.5998 37.3895 20.5255C36.2786 20.4543 35.2105 20.4401 34.1851 20.4685C24.9564 20.7534 14.0472 26.7919 9.56104 29.5263C8.35048 30.2669 6.79813 29.9251 6.00059 28.7573L1.4717 22.1776C0.574462 20.8673 1.01596 19.0729 2.44014 18.3465C6.37087 16.2957 14.6169 12.6498 25.9961 10.8981C35.5666 9.4454 47.8287 13.8888 53.6964 16.3812C53.6964 16.3812 53.7533 16.4096 53.8673 16.4524C55.4196 17.022 67.2546 21.6364 68.7499 30.2242C68.8496 30.6942 68.8924 31.1641 68.9066 31.6484V31.6341Z" fill="#fefffc"/>
<path d="M5.53 66.3984C4.50459 65.1451 4.67549 63.2937 5.91453 62.2398C10.8422 58.1097 22.848 48.354 31.151 44.2666C35.4093 42.1731 39.7245 40.7204 42.1029 40.0083C43.228 39.6665 44.4386 40.0226 45.2076 40.9198L50.2777 46.8302C51.588 48.354 51.0325 50.7039 49.1953 51.4872C45.4782 53.0823 39.3543 56.4576 31.7207 63.3934C24.2864 70.144 19.9854 74.1174 17.664 76.2679C16.4107 77.4358 14.4311 77.2934 13.3487 75.9689L5.51576 66.4126L5.53 66.3984Z" fill="#fefffc"/>
<path d="M280.79 63.0659C278.227 63.0659 275.863 63.0659 273.484 63.0659C268.599 63.0659 263.714 63.0517 258.829 63.0801C257.932 63.0801 257.619 62.838 257.647 61.9265C257.704 60.0324 257.69 58.1382 257.647 56.2441C257.633 55.4608 257.946 55.2044 258.687 55.2187C259.926 55.2471 261.165 55.2044 262.404 55.2329C263.045 55.2471 263.344 55.062 263.344 54.3642C263.33 50.3052 263.33 46.2463 263.344 42.1732C263.344 41.4896 263.073 41.2759 262.418 41.3044C261.151 41.3614 259.869 41.3187 258.601 41.3756C257.961 41.4041 257.647 41.219 257.662 40.5211C257.69 38.4845 257.69 36.4622 257.662 34.4256C257.662 33.7278 257.989 33.5284 258.616 33.5284C259.784 33.5426 260.966 33.4714 262.119 33.5426C263.059 33.5996 263.415 33.3005 263.358 32.3321C263.259 30.3952 263.501 28.4868 264.255 26.6781C265.808 23.0037 268.742 21.0099 272.53 20.4829C275.578 20.0557 278.697 20.1411 281.787 20.0557C282.001 20.0557 282.4 20.4829 282.414 20.725C282.456 22.8186 282.428 24.9264 282.442 27.0199C282.442 27.6893 282.058 27.8174 281.502 27.8032C279.708 27.8032 277.928 27.7605 276.133 27.8032C273.256 27.8744 271.49 30.3382 272.359 33.0869C272.43 33.3005 272.943 33.4857 273.242 33.4857C275.378 33.4857 277.515 33.4857 279.637 33.4002C280.548 33.3717 280.833 33.6708 280.804 34.5823C280.733 36.4337 280.733 38.2994 280.804 40.1508C280.833 41.0908 280.477 41.3187 279.608 41.3044C277.472 41.2617 275.336 41.3044 273.214 41.2759C272.558 41.2759 272.316 41.4468 272.316 42.1447C272.345 46.2036 272.345 50.2625 272.316 54.3357C272.316 55.0335 272.558 55.2187 273.214 55.2187C275.378 55.1902 277.557 55.2187 279.722 55.1902C280.491 55.1902 280.847 55.3468 280.819 56.2298C280.762 58.4515 280.804 60.6875 280.804 63.0374L280.79 63.0659Z" fill="#fefffc"/>
<path d="M391.423 63.8064C388.375 63.664 385.441 63.1513 382.721 61.7841C378.249 59.5197 375.657 55.8595 375.045 50.8891C374.347 45.2921 375.458 40.2505 380.072 36.5049C382.949 34.155 386.353 33.2008 390.013 33.0014C394.527 32.7593 398.814 33.4999 402.503 36.277C405.693 38.6839 407.388 41.9595 407.844 45.9045C408.242 49.2941 407.929 52.5697 406.391 55.6459C404.354 59.6906 400.936 62.012 396.621 63.0374C394.926 63.4362 393.175 63.5643 391.437 63.8064H391.423ZM391.451 55.8026C396.165 55.8026 399.014 52.9399 399.014 48.2117C399.014 43.5831 396.094 40.692 391.437 40.7205C386.723 40.7347 384.003 43.5119 383.832 48.0693C383.661 52.9969 387.093 55.9592 391.451 55.8026Z" fill="#fefffc"/>
<path d="M300.644 63.8065C297.596 63.6499 294.662 63.1514 291.942 61.77C287.47 59.5055 284.907 55.8311 284.266 50.875C283.611 45.7622 284.522 41.0624 288.367 37.3026C290.845 34.8815 293.922 33.6424 297.283 33.1724C301.299 32.617 305.258 32.8734 308.989 34.6251C314.344 37.1459 316.922 41.5324 317.179 47.3288C317.378 51.5444 316.466 55.4609 313.49 58.6795C311.411 60.9297 308.847 62.3254 305.913 62.9948C304.19 63.3935 302.396 63.5359 300.63 63.7781L300.644 63.8065ZM293.11 48.2403C292.825 53.1252 296.442 55.8596 300.53 55.8311C305.372 55.7884 308.235 53.0255 308.249 48.2687C308.249 43.6259 305.358 40.6921 300.715 40.7348C296.058 40.7776 292.925 43.455 293.124 48.2403H293.11Z" fill="#fefffc"/>
<path d="M320.568 20.0557C324.855 20.0557 328.871 19.9702 332.901 20.0841C335.066 20.1411 336.376 21.8216 336.376 24.1715C336.376 32.7451 336.376 41.3044 336.376 49.878C336.376 51.2879 336.419 52.6979 336.362 54.1078C336.333 54.9481 336.59 55.2614 337.459 55.2329C339.524 55.1759 341.589 55.2329 343.654 55.2044C344.465 55.1902 344.722 55.4608 344.708 56.2726C344.651 58.4658 344.693 60.6733 344.693 63.0517H343.497C335.863 63.0517 328.216 63.0374 320.582 63.0659C319.642 63.0659 319.314 62.8238 319.357 61.8553C319.428 60.0039 319.414 58.1382 319.357 56.2868C319.343 55.475 319.614 55.1902 320.425 55.2044C322.419 55.2471 324.413 55.1902 326.407 55.2329C327.219 55.2471 327.56 55.0478 327.56 54.1505C327.532 45.7194 327.532 37.2882 327.56 28.8571C327.56 28.0453 327.276 27.7747 326.478 27.8032C324.826 27.8459 323.174 27.8032 321.522 27.8174C320.995 27.8174 320.553 27.7747 320.568 27.0769C320.568 24.7839 320.568 22.491 320.568 20.0557Z" fill="#fefffc"/>
<path d="M348.312 62.9948C348.312 60.5595 348.312 58.2238 348.312 55.8882C348.312 55.2046 348.781 55.2331 349.237 55.2331C351.374 55.2331 353.51 55.2188 355.632 55.2331C356.23 55.2331 356.515 55.0764 356.515 54.4213C356.501 50.2627 356.515 46.0898 356.501 41.9312C356.501 41.7603 356.429 41.6037 356.372 41.3331C354.45 41.3331 352.527 41.2761 350.604 41.3616C349.693 41.4043 349.479 41.091 349.508 40.2649C349.551 38.3708 349.536 36.4766 349.508 34.5825C349.508 33.9273 349.707 33.6852 350.391 33.671C353.581 33.6283 356.785 33.5143 359.976 33.4716C363.052 33.4431 364.732 34.8958 364.818 37.972C364.917 42.1306 364.775 46.2892 364.732 50.4621C364.732 51.8008 364.732 53.1538 364.718 54.4925C364.718 55.1903 365.131 55.2331 365.672 55.2331C367.766 55.2331 369.874 55.2615 371.967 55.2188C372.822 55.2046 373.092 55.4894 373.078 56.3439C373.021 58.5372 373.064 60.7304 373.064 62.9948H348.312Z" fill="#fefffc"/>
<path d="M359.918 30.4234C357.141 30.3664 355.36 29.2413 354.691 27.0481C353.822 24.2282 355.36 21.6505 358.251 21.0381C359.889 20.6963 361.47 20.7817 362.98 21.4938C364.86 22.3626 365.757 24.0431 365.515 26.1082C365.258 28.2444 363.891 29.7825 361.869 30.1671C361.228 30.2952 360.573 30.3237 359.932 30.4092L359.918 30.4234Z" fill="#fefffc"/>
<path d="M217.992 63.1236H212.024V61.9685C212.024 57.0334 212.076 52.0984 211.997 47.1633C211.968 45.4182 211.753 43.6504 211.389 41.9446C210.933 39.8083 209.339 38.649 207.141 38.5372C202.972 38.3282 200.063 40.4252 198.827 44.7848C198.335 46.5216 198.068 48.3701 198.018 50.1773C197.904 54.45 197.981 58.7288 197.981 63.1671C196.08 63.1671 194.234 63.1982 192.391 63.1216C192.203 63.1133 191.895 62.4695 191.89 62.1155C191.853 58.5964 191.88 55.0751 191.863 51.556C191.851 49.0388 191.832 46.5195 191.748 44.0043C191.721 43.2239 191.545 42.4269 191.309 41.6776C190.702 39.7462 189.187 38.6407 187.14 38.5352C183.291 38.3364 180.611 40.0629 179.132 43.6359C178.191 45.913 177.946 48.3039 177.924 50.7259C177.888 54.4872 177.89 58.2486 177.932 62.0099C177.942 62.8918 177.725 63.2416 176.781 63.1982C175.172 63.1236 173.558 63.1775 171.821 63.1775C171.821 62.6951 171.821 62.3267 171.821 61.9582C171.821 53.0196 171.842 44.083 171.794 35.1444C171.788 34.0472 172.144 33.7698 173.15 33.8319C174.32 33.9023 175.497 33.894 176.667 33.8319C177.596 33.7843 178.023 34.0907 177.919 35.0595C177.673 37.3656 177.454 39.6737 177.218 42.0274C178.286 42.3172 178.367 42.253 178.75 40.9841C179.702 37.8189 181.294 35.1237 184.587 33.9499C188.038 32.7182 192.309 32.9252 194.789 35.6992C196.161 37.2352 196.894 39.0651 197.337 41.0503C197.422 41.4354 197.792 41.7542 198.03 42.1061C198.275 41.7893 198.631 41.5078 198.744 41.1518C199.711 38.0922 201.144 35.3949 204.305 34.0969C207.764 32.6768 212.475 32.8838 215.075 35.7902C216.887 37.8148 217.74 40.2637 217.839 42.8782C218.019 47.598 217.959 52.3281 217.992 57.0541C218.005 59.0476 217.994 61.0411 217.994 63.1216L217.992 63.1236Z" fill="#fefffc"/>
<path d="M157.122 45.317C157.453 41.2369 154.787 38.3202 150.638 38.1608C148.456 38.078 146.364 38.3864 144.637 39.8976C143.521 40.8746 143.022 42.1726 142.712 43.5844C142.648 43.8783 142.35 44.342 142.145 44.3482C140.4 44.4083 138.65 44.3834 136.789 44.3834C136.924 41.7254 137.779 39.5001 139.371 37.5563C141.124 35.4138 143.42 34.1614 146.107 33.6376C149.415 32.9918 152.696 33.0808 155.859 34.3415C160.517 36.1962 163.332 40.4316 163.363 45.5758C163.384 49.2336 163.367 52.8915 163.367 56.5472C163.367 56.924 163.367 57.2987 163.367 57.8907C164.444 57.8907 165.46 57.9321 166.47 57.8783C167.311 57.8348 167.661 58.1122 167.611 58.9941C167.549 60.0954 167.567 61.2029 167.605 62.3062C167.627 62.9893 167.362 63.2108 166.696 63.1922C165.282 63.155 163.864 63.1136 162.454 63.1943C159.21 63.3827 157.77 61.1822 158.366 57.9508C158.531 57.0523 158.848 56.1808 159.101 55.2741C158.144 54.9657 157.654 55.0982 157.331 56.0877C156.095 59.878 153.71 62.5733 149.661 63.4116C146.823 63.9995 143.968 63.9664 141.184 63.0742C137.696 61.9543 135.97 58.0605 136.086 54.7545C136.262 49.747 139.565 47.4927 143.631 46.851C147.606 46.2217 151.634 45.9319 155.637 45.4909C156.114 45.4392 156.59 45.3791 157.122 45.317ZM157.213 49.2916C155.712 49.4531 154.381 49.5752 153.056 49.7449C150.33 50.0927 147.593 50.3846 144.888 50.8607C143.145 51.1671 142.234 52.1876 142.118 53.6346C141.977 55.4046 142.271 57.1 144.026 57.9777C147.328 59.6255 150.485 58.8864 153.377 56.9406C155.975 55.1934 157.184 52.6182 157.213 49.2916Z" fill="#fefffc"/>
<path d="M245.958 55.1931C245.246 55.0213 244.702 55.013 244.377 56.0543C242.857 60.9438 239.297 63.6701 234.182 63.7115C232.176 63.7281 230.099 63.5273 228.174 62.9953C224.719 62.041 223.042 57.9939 223.138 54.7791C223.285 49.7447 226.694 47.4738 230.656 46.8507C234.633 46.2255 238.659 45.9316 242.665 45.4927C243.174 45.4368 243.683 45.3747 244.18 45.3167C244.673 41.4974 241.874 38.324 237.771 38.1915C236.39 38.148 234.941 38.3778 233.616 38.7836C231.406 39.4605 230.219 41.1683 229.855 43.4123C229.739 44.1223 229.511 44.4287 228.75 44.4059C227.143 44.3562 225.533 44.3914 223.821 44.3914C224.032 41.5637 224.93 39.2121 226.713 37.2144C228.454 35.2644 230.658 34.1176 233.194 33.6291C236.504 32.9894 239.785 33.0888 242.948 34.3577C247.581 36.2187 250.357 40.3941 250.394 45.5196C250.421 49.3162 250.421 53.1127 250.382 56.9071C250.374 57.6938 250.616 57.9546 251.382 57.9029C252.173 57.849 252.968 57.907 253.762 57.8884C254.346 57.8739 254.679 58.0664 254.671 58.7123C254.655 59.9543 254.655 61.1964 254.671 62.4384C254.679 63.0408 254.381 63.1961 253.833 63.1878C252.108 63.165 250.382 63.2126 248.658 63.165C246.755 63.1133 245.354 61.7988 245.381 59.886C245.401 58.3666 245.743 56.8513 245.96 55.1952L245.958 55.1931ZM234.453 58.9234C239.626 58.7868 243.665 55.3732 244.261 50.5354C244.406 49.3555 244.333 49.2747 243.157 49.4072C239.806 49.7861 236.448 50.1193 233.107 50.5748C231.722 50.7631 230.244 51.0426 229.52 52.4875C228.385 54.746 229.561 57.5965 231.948 58.3997C232.751 58.6688 233.614 58.7537 234.451 58.9234H234.453Z" fill="#fefffc"/>
<path d="M112.338 20.0742C115.7 20.0742 118.905 20.0162 122.105 20.1053C123.287 20.1384 124.163 20.9022 124.463 22.105C124.62 22.7322 124.688 23.3967 124.688 24.0446C124.701 34.9457 124.709 45.8468 124.676 56.7457C124.674 57.6628 124.918 57.9381 125.831 57.9071C127.796 57.8429 129.762 57.9153 131.727 57.8739C132.511 57.8574 132.847 58.0561 132.803 58.9152C132.735 60.2835 132.785 61.6601 132.785 63.1195C132.362 63.1423 132.031 63.1734 131.698 63.1734C124.974 63.1754 118.248 63.1589 111.525 63.1961C110.595 63.2023 110.308 62.9125 110.366 62.0141C110.432 60.9832 110.411 59.944 110.372 58.911C110.345 58.1596 110.624 57.8615 111.392 57.8739C113.46 57.9071 115.53 57.8553 117.598 57.8988C118.371 57.9153 118.596 57.6628 118.594 56.8907C118.571 46.6789 118.571 36.4693 118.594 26.2575C118.594 25.4544 118.354 25.1542 117.534 25.1832C116.054 25.2349 114.568 25.2246 113.088 25.1728C112.831 25.1645 112.378 24.8271 112.369 24.6284C112.307 23.1545 112.336 21.6744 112.336 20.068L112.338 20.0742Z" fill="#fefffc"/>
<path d="M80.3647 41.1143C80.3647 35.08 80.3854 29.0437 80.342 23.0073C80.3337 21.9971 80.638 21.6866 81.6316 21.7466C83.0062 21.8274 84.389 21.7963 85.7677 21.7549C86.4301 21.7342 86.693 21.9371 86.6909 22.6264C86.6764 31.9728 86.6868 41.3193 86.6743 50.6657C86.6723 52.6633 86.6371 54.663 86.5501 56.6586C86.5108 57.5508 86.8648 57.7537 87.6928 57.7495C93.8637 57.7206 100.037 57.7537 106.208 57.7123C107.127 57.7061 107.421 57.969 107.363 58.8798C107.288 60.0473 107.33 61.2252 107.35 62.3969C107.361 62.9682 107.139 63.1876 106.558 63.1856C99.0058 63.1711 91.4562 63.2042 83.9046 63.1504C81.7372 63.1359 80.3709 61.484 80.3668 59.1179C80.3565 53.1167 80.3627 47.1155 80.3627 41.1143H80.3647Z" fill="#fefffc"/>
</svg>
