<svg width="124" height="25" viewBox="0 0 124 25" fill="none" xmlns="http://www.w3.org/2000/svg">
<path d="M1.40505 0.668941L3.15369 3.09117C3.26967 3.25622 3.48825 3.31421 3.67115 3.225C4.11723 3.00642 5.04954 2.63617 6.42348 2.48004C6.7625 2.43989 6.91863 2.04288 6.69113 1.78861C6.23612 1.27561 5.40195 0.588646 4.02801 0.263005C2.93957 -0.000183807 2.18569 -0.022488 1.70392 0.0131987C1.38274 0.0355028 1.21769 0.410213 1.40505 0.668941Z" fill="white"/>
<path d="M21.583 9.8851C21.6187 10.9111 20.7042 11.1787 19.4552 11.0672C19.4418 11.0672 19.4284 11.0672 19.4195 11.0672C19.3437 11.0538 19.2723 11.0449 19.192 11.0405C19.1652 11.0405 19.1474 11.0405 19.1251 11.0315C17.2025 10.813 15.0211 10.813 12.9468 11.3483C8.64659 12.459 5.20729 15.0864 3.78428 16.3042C3.38727 16.6433 2.78952 16.5897 2.45942 16.1838L0.21116 13.4181C-0.132324 12.9943 -0.0475686 12.3787 0.398514 12.0664C2.04456 10.9245 5.97009 8.42195 9.97145 7.58777C10.5246 7.47179 11.1134 7.4138 11.7335 7.40042C11.9833 7.92234 12.5677 8.18999 13.1163 8.01601C13.7186 7.81974 14.0442 7.164 13.8435 6.54394C13.6427 5.92388 12.9959 5.58486 12.3937 5.77668C12.0725 5.87928 11.8361 6.1157 11.7112 6.40565C11.3632 6.38335 11.0287 6.37889 10.7075 6.38781C7.81687 6.47703 4.39988 8.36842 2.99472 9.2249C2.61555 9.45686 2.12932 9.3498 1.87951 8.98401L0.460966 6.92311C0.179934 6.51271 0.318219 5.95065 0.764302 5.72315C1.99549 5.08079 4.57831 3.93882 8.14251 3.39013C11.1402 2.93513 14.981 4.32691 16.8188 5.10755C16.8188 5.10755 16.8367 5.11647 16.8724 5.12986C17.3586 5.30829 21.0655 6.7536 21.5339 9.44348C21.5652 9.59069 21.5785 9.73789 21.583 9.88956V9.8851Z" fill="white"/>
<path d="M1.73318 20.7738C1.412 20.3812 1.46553 19.8013 1.85363 19.4712C3.39707 18.1776 7.15755 15.1219 9.75822 13.8416C11.092 13.1859 12.4436 12.7309 13.1886 12.5079C13.541 12.4008 13.9202 12.5123 14.1611 12.7933L15.7491 14.6446C16.1595 15.1219 15.9855 15.8579 15.4101 16.1033C14.2458 16.6029 12.3277 17.6601 9.93665 19.8325C7.6081 21.947 6.26093 23.1915 5.53381 23.8651C5.14126 24.2309 4.5212 24.1863 4.18218 23.7714L1.72872 20.7782L1.73318 20.7738Z" fill="white"/>
<path d="M65.8718 18.0749H64.1091V17.7347C64.1091 16.2734 64.1235 14.817 64.0995 13.3557C64.0899 12.8382 64.0277 12.316 63.9175 11.813C63.7834 11.1805 63.3092 10.8404 62.6625 10.8068C61.4315 10.7445 60.5693 11.3674 60.2053 12.6562C60.0616 13.1688 59.9802 13.715 59.9658 14.2516C59.9323 15.5165 59.9562 16.7813 59.9562 18.0941C59.3958 18.0941 58.8498 18.1036 58.3037 18.0797C58.2462 18.0797 58.1552 17.888 58.1552 17.7826C58.1456 16.743 58.1552 15.6985 58.1456 14.6589C58.1456 13.9162 58.1361 13.1688 58.1121 12.4262C58.1025 12.1962 58.0498 11.9615 57.9828 11.7363C57.8056 11.1662 57.3553 10.8404 56.7518 10.8068C55.6118 10.7493 54.8214 11.2572 54.3856 12.316C54.1077 12.9916 54.0359 13.6958 54.0263 14.4145C54.0167 15.526 54.0167 16.6376 54.0263 17.7539C54.0263 18.0126 53.964 18.118 53.6862 18.1036C53.212 18.0797 52.733 18.0988 52.2205 18.0988V17.7395C52.2205 15.0948 52.2253 12.4502 52.2109 9.81028C52.2109 9.48449 52.3163 9.40304 52.6133 9.42221C52.9582 9.44137 53.3078 9.44137 53.6527 9.42221C53.9257 9.40784 54.0551 9.49886 54.0215 9.78633C53.9497 10.4667 53.8826 11.1518 53.8156 11.8465C54.1317 11.9327 54.1556 11.9136 54.2706 11.5399C54.5532 10.6056 55.0226 9.8055 55.995 9.46054C57.0152 9.09642 58.2798 9.1587 59.0126 9.97797C59.4198 10.4331 59.6353 10.9745 59.7646 11.559C59.7886 11.674 59.8988 11.765 59.9706 11.8704C60.0425 11.7746 60.1478 11.6932 60.1814 11.5878C60.4688 10.6823 60.8903 9.88694 61.8243 9.49886C62.8493 9.07725 64.2384 9.13954 65.0096 10.0019C65.5461 10.6008 65.7951 11.3243 65.8287 12.1004C65.8814 13.4946 65.8622 14.8936 65.8718 16.2926C65.8718 16.8819 65.8718 17.4712 65.8718 18.0893V18.0749Z" fill="white"/>
<path d="M47.8671 12.8092C47.9629 11.6019 47.1774 10.7395 45.9511 10.6916C45.3045 10.6676 44.6866 10.7586 44.1741 11.2042C43.8436 11.4917 43.6951 11.8749 43.6041 12.2966C43.5849 12.3828 43.4987 12.5217 43.4364 12.5217C42.9191 12.5409 42.4018 12.5313 41.851 12.5313C41.8893 11.7456 42.1432 11.0892 42.6126 10.5143C43.1299 9.88186 43.81 9.50816 44.6052 9.35484C45.5823 9.1632 46.5547 9.19194 47.4887 9.56086C48.8682 10.1118 49.6969 11.3623 49.7064 12.8859C49.7112 13.9686 49.7064 15.0514 49.7064 16.1294V16.5271C50.0226 16.5271 50.3243 16.5415 50.6261 16.5271C50.8752 16.5127 50.9758 16.5942 50.9614 16.8577C50.9422 17.1835 50.947 17.5092 50.9614 17.835C50.9662 18.0363 50.8895 18.1033 50.6932 18.0986C50.2764 18.089 49.8549 18.0746 49.4382 18.0986C48.4802 18.156 48.0539 17.5045 48.2311 16.5462C48.279 16.2827 48.3748 16.024 48.4467 15.7557C48.1641 15.6647 48.0204 15.703 47.9246 15.9953C47.5606 17.1164 46.8516 17.9117 45.6542 18.1608C44.8159 18.3333 43.9729 18.3237 43.149 18.0602C42.1192 17.7296 41.6067 16.575 41.6402 15.5976C41.6929 14.1172 42.67 13.4512 43.8723 13.2596C45.0458 13.0727 46.2385 12.9865 47.4216 12.8571C47.5606 12.8427 47.7042 12.8236 47.8623 12.8044L47.8671 12.8092ZM47.8958 13.983C47.4504 14.0309 47.0576 14.0693 46.6648 14.1172C45.8601 14.2178 45.0506 14.304 44.2507 14.4478C43.7334 14.5388 43.4652 14.8406 43.4316 15.267C43.3885 15.7893 43.4748 16.2923 43.9969 16.551C44.974 17.0397 45.908 16.8193 46.7606 16.2444C47.527 15.727 47.8863 14.9652 47.8958 13.983Z" fill="white"/>
<path d="M74.1388 15.7319C73.9281 15.6792 73.7652 15.6792 73.6694 15.9858C73.2192 17.4327 72.1654 18.2376 70.6566 18.252C70.0626 18.2568 69.4495 18.1993 68.8795 18.0412C67.8593 17.7585 67.3611 16.5607 67.3898 15.6121C67.433 14.1221 68.4436 13.4513 69.6124 13.2692C70.7907 13.0824 71.9786 12.9962 73.1617 12.8668C73.3102 12.8524 73.4635 12.8333 73.6119 12.8141C73.7556 11.6834 72.9318 10.7444 71.7151 10.706C71.308 10.6916 70.8769 10.7635 70.4841 10.8833C69.8279 11.0845 69.4783 11.5876 69.3729 12.2535C69.3393 12.4643 69.2723 12.5554 69.0472 12.5458C68.573 12.5314 68.094 12.5458 67.591 12.5458C67.6533 11.7074 67.9215 11.0126 68.4484 10.4233C68.9609 9.84842 69.6172 9.50825 70.3644 9.36452C71.3415 9.17767 72.3139 9.20642 73.2479 9.58012C74.6178 10.1311 75.4369 11.3672 75.4513 12.8812C75.4609 14.0023 75.4609 15.1282 75.4513 16.2493C75.4513 16.4841 75.5183 16.5607 75.7483 16.5416C75.983 16.5272 76.2177 16.5416 76.4524 16.5416C76.6248 16.5416 76.7254 16.5943 76.7206 16.7859C76.7206 17.1548 76.7206 17.5189 76.7206 17.8878C76.7206 18.0651 76.6344 18.113 76.4715 18.1082C75.9638 18.1034 75.4513 18.1178 74.9435 18.1034C74.3831 18.0891 73.9664 17.701 73.976 17.1356C73.9808 16.6853 74.0814 16.2397 74.1484 15.7462L74.1388 15.7319ZM70.738 16.8338C72.266 16.7955 73.4635 15.7846 73.6407 14.352C73.6838 14.0023 73.6598 13.9783 73.315 14.0167C72.3235 14.1268 71.3319 14.2275 70.3404 14.3616C69.9285 14.4191 69.4926 14.5006 69.2771 14.927C68.9418 15.5929 69.2914 16.4361 69.9956 16.6757C70.2351 16.7571 70.4889 16.7811 70.738 16.829V16.8338Z" fill="white"/>
<path d="M34.6221 5.34513C35.6184 5.34513 36.562 5.32596 37.5104 5.35471C37.8601 5.36429 38.1187 5.58947 38.2098 5.94401C38.2577 6.13086 38.2768 6.32729 38.2768 6.51894C38.2768 9.74333 38.2816 12.9677 38.2768 16.1921C38.2768 16.4652 38.3487 16.5467 38.6169 16.5371C39.1965 16.5179 39.7808 16.5371 40.3604 16.5275C40.5903 16.5227 40.6909 16.5802 40.6766 16.8341C40.6574 17.2366 40.6718 17.6438 40.6718 18.0798C40.5472 18.0846 40.4466 18.0942 40.3508 18.0942C38.363 18.0942 36.3752 18.0942 34.3874 18.099C34.1144 18.099 34.0282 18.0127 34.0425 17.7492C34.0617 17.4426 34.0569 17.136 34.0425 16.8293C34.0329 16.6089 34.1192 16.5179 34.3443 16.5227C34.9574 16.5323 35.5657 16.5179 36.1788 16.5323C36.4087 16.5371 36.4758 16.4604 36.471 16.2352C36.4662 13.2169 36.4662 10.1937 36.471 7.17532C36.471 6.93576 36.3992 6.84952 36.1597 6.85911C35.7238 6.87348 35.2831 6.87348 34.8424 6.85911C34.7658 6.85911 34.6317 6.75849 34.6317 6.69621C34.6125 6.26022 34.6221 5.82423 34.6221 5.34513Z" fill="white"/>
<path d="M25.1689 11.5684C25.1689 9.78134 25.1784 7.99427 25.1641 6.21199C25.1641 5.91494 25.2503 5.81912 25.5473 5.83829C25.9544 5.86224 26.3615 5.85266 26.7687 5.83829C26.9651 5.83349 27.0417 5.89099 27.0417 6.097C27.0417 8.86145 27.0417 11.6259 27.0369 14.3904C27.0369 14.9797 27.0273 15.5737 26.9986 16.1631C26.989 16.4266 27.0896 16.4888 27.3387 16.4841C29.1636 16.4745 30.9886 16.4841 32.8136 16.4745C33.0866 16.4745 33.1728 16.5511 33.1536 16.8194C33.1297 17.1644 33.1441 17.5141 33.1536 17.8591C33.1536 18.0268 33.0914 18.0939 32.9189 18.0939C30.6868 18.0939 28.4547 18.0986 26.2178 18.0843C25.576 18.0843 25.1736 17.5908 25.1736 16.8913C25.1736 15.1138 25.1736 13.3411 25.1736 11.5636L25.1689 11.5684Z" fill="white"/>
<path d="M78.0829 12.0386C78.0829 10.1126 78.0877 8.18656 78.0781 6.26055C78.0781 6.00662 78.1452 5.94434 78.3943 5.94434C81.1245 5.95392 83.85 5.95392 86.5802 5.94434C86.8245 5.94434 86.9203 5.99704 86.9107 6.26055C86.8916 6.84985 86.8964 7.43436 86.9107 8.02366C86.9155 8.26322 86.8437 8.33508 86.6042 8.33029C84.7984 8.32071 82.9926 8.33029 81.1868 8.32071C80.9138 8.32071 80.8419 8.40216 80.8467 8.66567C80.8563 9.52806 80.8467 10.3905 80.8275 11.2481C80.8227 11.4924 80.8898 11.5595 81.1293 11.5547C82.7818 11.5355 84.4343 11.5403 86.0869 11.5164C86.3647 11.5164 86.4605 11.5882 86.4509 11.8709C86.4317 12.4075 86.4269 12.9441 86.4509 13.4807C86.4605 13.773 86.3551 13.8352 86.0821 13.8352C84.4918 13.8304 82.8968 13.8352 81.3065 13.8448C80.8563 13.8448 80.8563 13.8496 80.8563 14.2952C80.8515 15.469 80.8371 16.6476 80.8419 17.8214C80.8419 18.0514 80.7701 18.1137 80.5449 18.1089C79.8264 18.0945 79.1032 18.0945 78.3847 18.1089C78.15 18.1137 78.0781 18.061 78.0829 17.8118C78.0925 15.8858 78.0877 13.9598 78.0877 12.0338L78.0829 12.0386Z" fill="white"/>
<path d="M87.3193 13.7146C87.3193 11.3814 88.7083 9.73803 91.041 9.34996C92.4684 9.1104 93.8527 9.23018 95.1125 10.0015C96.2716 10.7106 96.8751 11.7694 97.0188 13.1109C97.1386 14.2273 97.0045 15.2909 96.3962 16.2587C95.7926 17.2265 94.8873 17.8014 93.8048 18.0793C92.593 18.3859 91.3811 18.362 90.1884 17.9643C88.3491 17.3511 87.3097 15.8083 87.3145 13.7146H87.3193ZM89.9585 13.7242C89.8675 15.1424 90.9165 15.9856 92.1571 15.9808C93.6084 15.976 94.4179 15.1088 94.4275 13.7482C94.4371 12.3827 93.5797 11.5203 92.2098 11.5251C90.8015 11.5299 89.901 12.3635 89.9537 13.7242H89.9585Z" fill="white"/>
<path d="M114.053 13.7153C114.053 11.4012 115.466 9.72914 117.755 9.35064C119.14 9.12067 120.49 9.21649 121.731 9.92557C123.096 10.7065 123.728 11.9474 123.795 13.4853C123.848 14.7262 123.58 15.8761 122.708 16.8295C122.119 17.4667 121.391 17.8692 120.562 18.08C119.341 18.3866 118.115 18.3674 116.912 17.9602C115.083 17.3326 114.053 15.7994 114.053 13.7201V13.7153ZM118.934 15.9767C120.328 15.9767 121.171 15.1383 121.171 13.7488C121.171 12.3834 120.318 11.521 118.953 11.5258C117.559 11.5354 116.706 12.3355 116.687 13.7249C116.668 15.2053 117.712 16.0246 118.934 15.9719V15.9767Z" fill="white"/>
<path d="M102.713 11.0608C102.713 12.522 102.718 13.9785 102.709 15.4398C102.709 15.7225 102.771 15.8327 103.073 15.8183C103.671 15.7944 104.27 15.8183 104.864 15.8087C105.075 15.8087 105.175 15.8518 105.166 16.0962C105.142 16.6951 105.142 17.2892 105.147 17.8881C105.147 18.0557 105.099 18.1132 104.922 18.1132C102.598 18.1084 100.28 18.1084 97.957 18.1132C97.7559 18.1132 97.6888 18.0462 97.6936 17.8497C97.7032 17.2604 97.7032 16.6759 97.6936 16.0866C97.6936 15.8662 97.7846 15.8087 97.9858 15.8087C98.6037 15.8135 99.2216 15.8039 99.8395 15.8135C100.05 15.8135 100.117 15.7512 100.117 15.5356C100.113 13.0251 100.113 10.5098 100.117 7.99927C100.117 7.77889 100.036 7.72139 99.8299 7.72618C99.3318 7.73577 98.8384 7.72618 98.3402 7.73576C98.1199 7.74056 98.0145 7.67348 98.0481 7.43872C98.1343 6.85421 98.0816 6.2649 98.0864 5.68039C98.0864 5.48875 98.1391 5.44084 98.3211 5.44563C99.3844 5.45521 100.448 5.44563 101.516 5.45042C102.263 5.45521 102.704 5.91516 102.709 6.68652C102.709 8.1478 102.709 9.60429 102.709 11.0656L102.713 11.0608Z" fill="white"/>
<path d="M109.837 18.1031C108.721 18.1031 107.605 18.0983 106.494 18.1031C106.288 18.1031 106.216 18.0552 106.221 17.8348C106.235 17.2455 106.235 16.661 106.221 16.0717C106.216 15.8465 106.298 15.7938 106.504 15.7986C107.121 15.8082 107.739 15.7986 108.357 15.8034C108.558 15.8034 108.64 15.7603 108.64 15.5351C108.63 14.3374 108.63 13.1444 108.64 11.9466C108.64 11.7502 108.592 11.6831 108.386 11.6879C107.869 11.7023 107.351 11.6879 106.834 11.7023C106.647 11.7071 106.575 11.6591 106.58 11.4675C106.585 10.8686 106.585 10.2697 106.58 9.67564C106.58 9.50316 106.647 9.46004 106.815 9.44567C107.543 9.38338 108.271 9.41213 108.999 9.41213C109.363 9.41213 109.722 9.36422 110.091 9.43608C110.632 9.54628 110.963 9.84332 111.049 10.3847C111.078 10.562 111.092 10.7488 111.087 10.9309C111.078 12.4401 111.073 13.9493 111.049 15.4585C111.049 15.722 111.111 15.813 111.384 15.8034C112.002 15.7843 112.62 15.8034 113.238 15.7938C113.463 15.7938 113.506 15.8801 113.502 16.0813C113.487 16.6706 113.482 17.2551 113.492 17.8444C113.492 18.0504 113.435 18.0983 113.233 18.0983C112.098 18.0888 110.963 18.0983 109.828 18.0983L109.837 18.1031Z" fill="white"/>
<path d="M109.696 8.47869C108.168 8.48828 107.857 7.35279 108.154 6.52873C108.355 5.97775 108.968 5.64238 109.691 5.6807C109.984 5.69508 110.271 5.73341 110.544 5.86756C111.148 6.1694 111.349 6.62934 111.291 7.19469C111.224 7.87502 110.808 8.32059 110.194 8.42599C110.017 8.45474 109.835 8.49786 109.691 8.47869H109.696Z" fill="white"/>
</svg>
