<svg width="186" height="31" viewBox="0 0 186 31" fill="none" xmlns="http://www.w3.org/2000/svg">
<path d="M26.5769 11.5631L21.0366 14.7637C20.7631 14.9258 20.439 14.9258 20.1554 14.7637L14.0884 11.2592V4.35156L26.5566 11.553C26.5566 11.553 26.5667 11.5631 26.587 11.5732L26.5769 11.5631Z" fill="#F56284"/>
<path d="M27.103 12.4847V18.8758C27.103 19.1898 26.9308 19.4836 26.6573 19.6456L21.0664 22.8665L21.0968 22.7044C21.1069 22.6437 21.1069 22.593 21.1069 22.5322V16.445C21.1069 16.3741 21.1069 16.2931 21.0866 16.2222C21.0866 16.1715 21.0765 16.131 21.0664 16.0702C21.0563 16.0095 21.0461 15.9487 21.0259 15.8778C21.2082 15.8373 21.3804 15.7765 21.5526 15.6752L27.0929 12.4746L27.103 12.4847Z" fill="#F56284"/>
<path d="M20.0656 16.4352V22.5225C20.0656 22.6136 20.0048 22.6744 19.9744 22.6845C19.9339 22.7048 19.8832 22.7251 19.8022 22.6845L14.0796 19.3928V12.4648L19.6199 15.6756C19.7617 15.7465 19.863 15.868 19.944 15.9997C20.0149 16.1212 20.0554 16.2732 20.0554 16.4352H20.0656Z" fill="#F56284"/>
<path d="M12.4984 3.4301L6.51244 6.89406L0.79995 3.59215C0.708793 3.54151 0.597379 3.501 0.496094 3.47061L6.08705 0.209224L6.42129 0.0167815C6.47193 -0.00347556 6.5327 -0.00347556 6.57322 0.00665297L12.4984 3.4301Z" fill="#F56284"/>
<path d="M13.0243 4.35193V26.9993C13.0243 27.3234 12.8521 27.607 12.5786 27.7691L6.97754 31.0001C7.00792 30.8988 7.02818 30.7671 7.02818 30.6557V7.79563L13.0141 4.3418L13.0243 4.35193Z" fill="#F56284"/>
<path d="M5.98596 7.79579V30.6559C5.98596 30.7471 5.92519 30.8078 5.89481 30.818C5.86442 30.8382 5.80365 30.8585 5.72262 30.818L0.445656 27.7693C0.172185 27.6072 0 27.3135 0 26.9995V4.65595C0 4.57492 0.0506427 4.51415 0.0810283 4.50402C0.101285 4.48376 0.131671 4.47363 0.172185 4.47363C0.202571 4.47363 0.232956 4.48376 0.263342 4.50402L5.97584 7.79579H5.98596Z" fill="#F56284"/>
<path d="M45.6788 25.3692V24.2348C45.6788 24.0119 45.4965 23.8296 45.2737 23.8296H36.9683C36.7455 23.8296 36.5632 23.6473 36.5632 23.4245V6.72252C36.5632 6.4997 36.3808 6.31738 36.158 6.31738H34.8514C34.6286 6.31738 34.4463 6.4997 34.4463 6.72252V25.3692C34.4463 25.592 34.6286 25.7743 34.8514 25.7743H45.2737C45.4965 25.7743 45.6788 25.592 45.6788 25.3692Z" fill="#F56284"/>
<path d="M50.5811 25.3691V5.33483C50.5811 5.112 50.3988 4.92969 50.176 4.92969H48.8998C48.6769 4.92969 48.4946 5.112 48.4946 5.33483V25.3691C48.4946 25.5919 48.6769 25.7742 48.8998 25.7742H50.176C50.3988 25.7742 50.5811 25.5919 50.5811 25.3691Z" fill="#F56284"/>
<path d="M58.1565 26.0578C60.5165 26.0578 62.4105 24.7512 63.3018 22.6951V25.3792C63.3018 25.602 63.4841 25.7843 63.707 25.7843H64.8414C65.0642 25.7843 65.2465 25.602 65.2465 25.3792V16.6889C65.2465 13.8833 62.8866 11.9893 59.5239 11.9893C56.4549 11.9893 54.3887 13.5288 53.862 16.1723C53.8215 16.3952 53.9734 16.6079 54.1963 16.6484L55.2294 16.8206C55.4421 16.8611 55.6345 16.7193 55.6852 16.5167C56.141 14.8151 57.4678 13.7415 59.5239 13.7415C61.8028 13.7415 63.1904 14.9974 63.1904 16.4661C63.1904 17.1852 62.5827 17.722 60.8001 18.0259L56.8803 18.6943C54.571 19.0792 53.4062 20.4972 53.4062 22.2292C53.4062 24.5081 55.3003 26.0679 58.1565 26.0679V26.0578ZM58.5414 24.417C56.8196 24.417 55.513 23.556 55.513 22.1381C55.513 21.0847 56.2321 20.2744 57.7615 20.0009L61.0432 19.3932C62.3801 19.14 63.0486 18.7551 63.2917 18.3601V19.3932C63.2917 22.1988 61.1546 24.4271 58.5414 24.4271V24.417Z" fill="#F56284"/>
<path d="M89.4443 25.7746C89.6671 25.7746 89.8494 25.5922 89.8494 25.3694V18.1275C89.8494 14.1267 88.158 11.9795 84.7852 11.9795C82.8911 11.9795 81.3516 12.7695 80.4096 14.7446C80.2577 15.0687 79.8019 15.0586 79.6703 14.7243C78.9207 12.9012 77.442 11.9795 75.2542 11.9795C73.0664 11.9795 71.4965 13.0632 70.666 15.2611V12.6682C70.666 12.4454 70.4837 12.2631 70.2608 12.2631H69.0961C68.8732 12.2631 68.6909 12.4454 68.6909 12.6682V25.3694C68.6909 25.5922 68.8732 25.7746 69.0961 25.7746H70.3723C70.5951 25.7746 70.7774 25.5922 70.7774 25.3694V19.1606C70.7774 15.879 72.2258 13.9647 74.6668 13.9647C77.1077 13.9647 78.2219 15.6865 78.2219 18.8264V25.3694C78.2219 25.5922 78.4042 25.7746 78.627 25.7746H79.9032C80.126 25.7746 80.3083 25.5922 80.3083 25.3694V19.1606C80.3083 15.879 81.7263 13.9647 84.1977 13.9647C86.6691 13.9647 87.7528 15.6865 87.7528 18.8264V25.3694C87.7528 25.5922 87.9351 25.7746 88.158 25.7746H89.4342H89.4443Z" fill="#F56284"/>
<path d="M97.4456 26.0578C99.8055 26.0578 101.7 24.7512 102.591 22.6951V25.3792C102.591 25.602 102.773 25.7843 102.996 25.7843H104.13C104.353 25.7843 104.536 25.602 104.536 25.3792V16.6889C104.536 13.8833 102.176 11.9893 98.8129 11.9893C95.744 11.9893 93.6778 13.5288 93.1511 16.1723C93.1106 16.3952 93.2625 16.6079 93.4853 16.6484L94.5185 16.8206C94.7312 16.8611 94.9236 16.7193 94.9742 16.5167C95.43 14.8151 96.7569 13.7415 98.8129 13.7415C101.092 13.7415 102.479 14.9974 102.479 16.4661C102.479 17.1852 101.872 17.722 100.089 18.0259L96.1694 18.6943C93.8601 19.0792 92.6953 20.4972 92.6953 22.2292C92.6953 24.5081 94.5894 26.0679 97.4456 26.0679V26.0578ZM97.8305 24.417C96.1086 24.417 94.802 23.556 94.802 22.1381C94.802 21.0847 95.5212 20.2744 97.0506 20.0009L100.332 19.3932C101.669 19.14 102.338 18.7551 102.581 18.3601V19.3932C102.581 22.1988 100.444 24.4271 97.8305 24.4271V24.417Z" fill="#F56284"/>
<path d="M124.053 25.3692V6.72252C124.053 6.4997 123.87 6.31738 123.648 6.31738H120.791C120.568 6.31738 120.386 6.4997 120.386 6.72252V18.5425C120.386 18.9477 119.87 19.0996 119.647 18.7654L111.503 6.4997C111.433 6.38828 111.301 6.31738 111.169 6.31738H108.12C107.898 6.31738 107.715 6.4997 107.715 6.72252V25.3692C107.715 25.592 107.898 25.7743 108.12 25.7743H110.977C111.2 25.7743 111.382 25.592 111.382 25.3692V13.5492C111.382 13.144 111.898 12.9921 112.121 13.3263L120.265 25.592C120.335 25.7034 120.467 25.7743 120.599 25.7743H123.648C123.87 25.7743 124.053 25.592 124.053 25.3692Z" fill="#F56284"/>
<path d="M133.362 26.0782C137.646 26.0782 140.644 23.0801 140.644 19.0186C140.644 14.957 137.646 11.959 133.362 11.959C129.078 11.959 126.11 14.957 126.11 19.0186C126.11 23.0801 129.088 26.0782 133.362 26.0782ZM133.362 22.9383C131.275 22.9383 129.776 21.2975 129.776 19.0186C129.776 16.7397 131.275 15.0988 133.362 15.0988C135.448 15.0988 136.978 16.7397 136.978 19.0186C136.978 21.2975 135.479 22.9383 133.362 22.9383Z" fill="#F56284"/>
<path d="M148.292 26.0781C150.206 26.0781 151.827 25.1564 152.627 23.5459V25.3691C152.627 25.5919 152.809 25.7742 153.032 25.7742H155.584C155.807 25.7742 155.99 25.5919 155.99 25.3691V5.33483C155.99 5.112 155.807 4.92969 155.584 4.92969H152.809C152.586 4.92969 152.404 5.112 152.404 5.33483V13.0021C152.404 13.3566 151.979 13.5389 151.726 13.2959C150.865 12.4552 149.649 11.969 148.292 11.969C144.565 11.969 141.698 14.7544 141.698 19.0286C141.698 23.3029 144.565 26.0882 148.292 26.0882V26.0781ZM148.9 22.9382C146.813 22.9382 145.365 21.2974 145.365 19.0185C145.365 16.7396 146.813 15.0987 148.9 15.0987C150.986 15.0987 152.404 16.7396 152.404 19.0185C152.404 21.2974 150.956 22.9382 148.9 22.9382Z" fill="#F56284"/>
<path d="M165.286 26.0782C168.183 26.0782 170.482 24.5893 171.546 22.5028C171.667 22.2698 171.505 21.9761 171.242 21.9255L168.872 21.5102C168.72 21.4798 168.568 21.5507 168.477 21.6824C167.839 22.5636 166.725 23.1611 165.286 23.1611C163.423 23.1611 162.005 21.9862 161.701 20.3353C161.66 20.0922 161.863 19.8795 162.106 19.8795H172.042C172.073 19.6567 172.093 19.2414 172.093 18.9882C172.093 14.957 169.307 11.959 165.033 11.959C160.759 11.959 157.974 14.957 157.974 19.0186C157.974 23.0801 160.617 26.0782 165.286 26.0782ZM165.033 14.8152C166.613 14.8152 167.869 15.7369 168.305 17.1144C168.386 17.3778 168.193 17.6512 167.92 17.6512H162.157C161.883 17.6512 161.681 17.3778 161.772 17.1144C162.207 15.7369 163.463 14.8152 165.043 14.8152H165.033Z" fill="#F56284"/>
<path d="M179.224 26.0775C182.394 26.0775 185.28 24.4367 185.28 21.935C185.28 19.9093 184.136 18.6533 180.864 17.762L178.586 17.1543C177.532 16.8808 177.117 16.5669 177.117 15.9895C177.117 15.2096 178.039 14.6526 179.234 14.6526C180.368 14.6526 181.29 15.2198 181.685 16.2124C181.756 16.3947 181.938 16.5162 182.131 16.4858L184.653 16.0706C184.855 16.0402 185.027 15.8477 184.997 15.635C184.754 13.8423 182.728 11.9482 179.244 11.9482C175.76 11.9482 173.46 13.7815 173.46 16.0908C173.46 18.2077 174.686 19.3421 177.603 20.1524L179.882 20.7905C181.138 21.1551 181.634 21.5096 181.634 22.097C181.634 22.8465 180.601 23.3732 179.244 23.3732C178.17 23.3732 177.046 22.8769 176.529 21.7831C176.448 21.6109 176.276 21.5096 176.094 21.54L173.552 21.9552C173.339 21.9856 173.177 22.1781 173.207 22.3908C173.471 24.2848 175.75 26.0775 179.244 26.0775H179.224Z" fill="#F56284"/>
</svg>
