<svg width="433" height="70" viewBox="0 0 433 70" fill="none" xmlns="http://www.w3.org/2000/svg">
<path d="M59.72 26.4725L47.3584 33.6137C46.7483 33.9753 46.0251 33.9753 45.3923 33.6137L31.8556 25.7945V10.3821L59.6748 26.4499C59.6748 26.4499 59.6974 26.4725 59.7426 26.4951L59.72 26.4725Z" fill="#F56284"/>
<path d="M60.8947 28.5269V42.7868C60.8947 43.4873 60.5105 44.1427 59.9003 44.5043L47.4257 51.6907L47.4935 51.3291C47.5161 51.1935 47.5161 51.0805 47.5161 50.945V37.363C47.5161 37.2048 47.5161 37.024 47.4709 36.8659C47.4709 36.7529 47.4483 36.6625 47.4257 36.5269C47.4031 36.3913 47.3805 36.2557 47.3353 36.0975C47.7421 36.0071 48.1263 35.8715 48.5105 35.6455L60.8721 28.5043L60.8947 28.5269Z" fill="#F56284"/>
<path d="M45.1917 37.3433V50.9252C45.1917 51.1286 45.0562 51.2642 44.9884 51.2868C44.898 51.332 44.785 51.3772 44.6042 51.2868L31.8358 43.9421V28.4845L44.1974 35.6483C44.5138 35.8065 44.7398 36.0777 44.9206 36.3715C45.0788 36.6427 45.1692 36.9817 45.1692 37.3433H45.1917Z" fill="#F56284"/>
<path d="M28.307 8.32514L14.9511 16.054L2.20531 8.68672C2.00192 8.57373 1.75333 8.48333 1.52734 8.41553L14.0019 1.1387L14.7477 0.709318C14.8607 0.66412 14.9963 0.66412 15.0867 0.686719L28.307 8.32514Z" fill="#F56284"/>
<path d="M29.482 10.3816V60.9127C29.482 61.6359 29.0978 62.2686 28.4877 62.6302L15.9905 69.8392C16.0583 69.6133 16.1035 69.3195 16.1035 69.0709V18.0652L29.4594 10.359L29.482 10.3816Z" fill="#F56284"/>
<path d="M13.7778 18.0647V69.0703C13.7778 69.2737 13.6422 69.4093 13.5744 69.4319C13.5066 69.4771 13.371 69.5223 13.1902 69.4319L1.41623 62.6296C0.806056 62.2681 0.421875 61.6127 0.421875 60.9121V11.059C0.421875 10.8782 0.534869 10.7426 0.602666 10.72C0.647864 10.6748 0.71566 10.6522 0.806056 10.6522C0.873852 10.6522 0.941649 10.6748 1.00945 10.72L13.7552 18.0647H13.7778Z" fill="#F56284"/>
<path d="M411.563 13.5461V11.7382H420.083V13.5461H416.897V22.111H414.727V13.5461H411.541H411.563Z" fill="#F56284"/>
<path d="M421.191 11.7382H423.903L426.75 18.7212H426.863L429.711 11.7382H432.423V22.111H430.298V15.354H430.231L427.541 22.0658H426.095L423.406 15.3314H423.338V22.111H421.214V11.7382H421.169H421.191Z" fill="#F56284"/>
<path d="M102.342 57.2747V54.7436C102.342 54.2465 101.936 53.8397 101.438 53.8397H82.9073C82.4101 53.8397 82.0033 53.4329 82.0033 52.9357V15.6702C82.0033 15.173 81.5965 14.7662 81.0994 14.7662H78.1841C77.6869 14.7662 77.2802 15.173 77.2802 15.6702V57.2747C77.2802 57.7719 77.6869 58.1787 78.1841 58.1787H101.438C101.936 58.1787 102.342 57.7719 102.342 57.2747Z" fill="#F56284"/>
<path d="M113.28 57.2735V12.5729C113.28 12.0757 112.874 11.6689 112.376 11.6689H109.529C109.032 11.6689 108.625 12.0757 108.625 12.5729V57.2735C108.625 57.7707 109.032 58.1774 109.529 58.1774H112.376C112.874 58.1774 113.28 57.7707 113.28 57.2735Z" fill="#F56284"/>
<path d="M130.184 58.8087C135.45 58.8087 139.676 55.8934 141.665 51.3058V57.2945C141.665 57.7917 142.071 58.1985 142.569 58.1985H145.1C145.597 58.1985 146.004 57.7917 146.004 57.2945V37.9047C146.004 31.6448 140.738 27.4188 133.235 27.4188C126.388 27.4188 121.778 30.8539 120.603 36.7522C120.512 37.2493 120.851 37.7239 121.348 37.8143L123.653 38.1985C124.128 38.2889 124.557 37.9725 124.67 37.5205C125.687 33.7239 128.648 31.3284 133.235 31.3284C138.32 31.3284 141.416 34.1307 141.416 37.4075C141.416 39.012 140.06 40.2098 136.083 40.8878L127.337 42.3793C122.184 43.238 119.586 46.4019 119.586 50.2663C119.586 55.351 123.812 58.8313 130.184 58.8313V58.8087ZM131.043 55.1476C127.201 55.1476 124.286 53.2267 124.286 50.0629C124.286 47.7126 125.891 45.9047 129.303 45.2945L136.625 43.9386C139.608 43.3736 141.1 42.5149 141.642 41.6335V43.9386C141.642 50.1985 136.874 55.1702 131.043 55.1702V55.1476Z" fill="#F56284"/>
<path d="M199.99 58.1787C200.487 58.1787 200.894 57.7719 200.894 57.2748V41.1166C200.894 32.19 197.12 27.399 189.595 27.399C185.369 27.399 181.934 29.1618 179.832 33.5685C179.493 34.2917 178.476 34.2691 178.182 33.5233C176.51 29.4555 173.21 27.399 168.329 27.399C163.448 27.399 159.945 29.8171 158.092 34.7211V28.9358C158.092 28.4386 157.685 28.0318 157.188 28.0318H154.589C154.092 28.0318 153.685 28.4386 153.685 28.9358V57.2748C153.685 57.7719 154.092 58.1787 154.589 58.1787H157.436C157.934 58.1787 158.34 57.7719 158.34 57.2748V43.4216C158.34 36.0996 161.572 31.8284 167.018 31.8284C172.465 31.8284 174.95 35.6702 174.95 42.6759V57.2748C174.95 57.7719 175.357 58.1787 175.854 58.1787H178.702C179.199 58.1787 179.606 57.7719 179.606 57.2748V43.4216C179.606 36.0996 182.77 31.8284 188.284 31.8284C193.798 31.8284 196.216 35.6702 196.216 42.6759V57.2748C196.216 57.7719 196.623 58.1787 197.12 58.1787H199.967H199.99Z" fill="#F56284"/>
<path d="M217.845 58.8087C223.11 58.8087 227.336 55.8934 229.325 51.3058V57.2945C229.325 57.7917 229.732 58.1985 230.229 58.1985H232.76C233.257 58.1985 233.664 57.7917 233.664 57.2945V37.9047C233.664 31.6448 228.399 27.4188 220.896 27.4188C214.048 27.4188 209.438 30.8539 208.263 36.7522C208.173 37.2493 208.512 37.7239 209.009 37.8143L211.314 38.1985C211.788 38.2889 212.218 37.9725 212.331 37.5205C213.348 33.7239 216.308 31.3284 220.896 31.3284C225.98 31.3284 229.076 34.1307 229.076 37.4075C229.076 39.012 227.721 40.2098 223.743 40.8878L214.997 42.3793C209.845 43.238 207.246 46.4019 207.246 50.2663C207.246 55.351 211.472 58.8313 217.845 58.8313V58.8087ZM218.704 55.1476C214.862 55.1476 211.947 53.2267 211.947 50.0629C211.947 47.7126 213.551 45.9047 216.963 45.2945L224.286 43.9386C227.269 43.3736 228.76 42.5149 229.302 41.6335V43.9386C229.302 50.1985 224.534 55.1702 218.704 55.1702V55.1476Z" fill="#F56284"/>
<path d="M277.211 57.2747V15.6702C277.211 15.173 276.804 14.7662 276.307 14.7662H269.934C269.437 14.7662 269.03 15.173 269.03 15.6702V42.0431C269.03 42.947 267.877 43.286 267.38 42.5403L249.211 15.173C249.053 14.9244 248.759 14.7662 248.465 14.7662H241.663C241.166 14.7662 240.759 15.173 240.759 15.6702V57.2747C240.759 57.7719 241.166 58.1787 241.663 58.1787H248.036C248.533 58.1787 248.94 57.7719 248.94 57.2747V30.9018C248.94 29.9979 250.092 29.6589 250.589 30.4047L268.759 57.7719C268.917 58.0205 269.211 58.1787 269.505 58.1787H276.307C276.804 58.1787 277.211 57.7719 277.211 57.2747V57.2747Z" fill="#F56284"/>
<path d="M297.981 58.8557C307.541 58.8557 314.23 52.1665 314.23 43.1043C314.23 34.0422 307.541 27.3529 297.981 27.3529C288.422 27.3529 281.801 34.0422 281.801 43.1043C281.801 52.1665 288.445 58.8557 297.981 58.8557ZM297.981 51.8501C293.326 51.8501 289.981 48.1891 289.981 43.1043C289.981 38.0196 293.326 34.3586 297.981 34.3586C302.637 34.3586 306.049 38.0196 306.049 43.1043C306.049 48.1891 302.705 51.8501 297.981 51.8501Z" fill="#F56284"/>
<path d="M331.292 58.8554C335.564 58.8554 339.179 56.7989 340.965 53.2057V57.2735C340.965 57.7707 341.371 58.1774 341.869 58.1774H347.564C348.061 58.1774 348.467 57.7707 348.467 57.2735V12.5729C348.467 12.0757 348.061 11.6689 347.564 11.6689H341.371C340.874 11.6689 340.467 12.0757 340.467 12.5729V29.6802C340.467 30.4712 339.518 30.878 338.953 30.3356C337.032 28.4599 334.321 27.3752 331.292 27.3752C322.976 27.3752 316.58 33.5899 316.58 43.1266C316.58 52.6633 322.976 58.878 331.292 58.878V58.8554ZM332.648 51.8497C327.993 51.8497 324.761 48.1887 324.761 43.104C324.761 38.0192 327.993 34.3582 332.648 34.3582C337.304 34.3582 340.467 38.0192 340.467 43.104C340.467 48.1887 337.236 51.8497 332.648 51.8497Z" fill="#F56284"/>
<path d="M369.212 58.8557C375.675 58.8557 380.805 55.5337 383.178 50.8783C383.449 50.3586 383.088 49.7032 382.5 49.5902L377.212 48.6636C376.873 48.5958 376.534 48.754 376.331 49.0478C374.907 51.0139 372.421 52.3473 369.212 52.3473C365.054 52.3473 361.89 49.7258 361.212 46.0422C361.122 45.4998 361.574 45.0252 362.116 45.0252H384.285C384.353 44.5281 384.398 43.6015 384.398 43.0365C384.398 34.0422 378.184 27.3529 368.647 27.3529C359.11 27.3529 352.896 34.0422 352.896 43.1043C352.896 52.1665 358.794 58.8557 369.212 58.8557V58.8557ZM368.647 33.7258C372.172 33.7258 374.975 35.7823 375.946 38.8557C376.127 39.4433 375.698 40.0535 375.088 40.0535H362.229C361.619 40.0535 361.167 39.4433 361.37 38.8557C362.342 35.7823 365.144 33.7258 368.67 33.7258H368.647Z" fill="#F56284"/>
<path d="M400.31 58.8553C407.383 58.8553 413.824 55.1942 413.824 49.6123C413.824 45.0926 411.27 42.2903 403.971 40.3016L398.886 38.9457C396.536 38.3355 395.609 37.6349 395.609 36.3468C395.609 34.6067 397.666 33.3637 400.333 33.3637C402.864 33.3637 404.92 34.6293 405.802 36.844C405.96 37.2507 406.367 37.5219 406.796 37.4541L412.423 36.5276C412.875 36.4598 413.259 36.0304 413.191 35.5558C412.649 31.5558 408.129 27.3298 400.355 27.3298C392.581 27.3298 387.451 31.4202 387.451 36.5728C387.451 41.2959 390.186 43.827 396.694 45.6349L401.779 47.0587C404.581 47.8722 405.689 48.6632 405.689 49.9739C405.689 51.6462 403.383 52.8214 400.355 52.8214C397.96 52.8214 395.451 51.714 394.299 49.2733C394.118 48.8892 393.734 48.6632 393.327 48.731L387.655 49.6575C387.18 49.7253 386.818 50.1547 386.886 50.6293C387.474 54.8553 392.559 58.8553 400.355 58.8553H400.31Z" fill="#F56284"/>
</svg>
