<?xml version="1.0" standalone="no"?>
<!DOCTYPE svg PUBLIC "-//W3C//DTD SVG 20010904//EN"
 "http://www.w3.org/TR/2001/REC-SVG-20010904/DTD/svg10.dtd">
<svg version="1.0" xmlns="http://www.w3.org/2000/svg"
 width="260.000000pt" height="260.000000pt" viewBox="0 0 260.000000 260.000000"
 preserveAspectRatio="xMidYMid meet">
<metadata>
Created by potrace 1.14, written by Peter Selinger 2001-2017
</metadata>
<g transform="translate(0.000000,260.000000) scale(0.100000,-0.100000)"
fill="#000000" stroke="none">
<path d="M452 2580 c-109 -29 -187 -74 -273 -160 -56 -55 -86 -95 -113 -150
-66 -136 -66 -130 -66 -976 0 -725 1 -764 20 -838 29 -113 73 -190 160 -277
55 -56 95 -86 150 -113 136 -66 130 -66 976 -66 725 0 764 1 838 20 113 29
190 73 277 160 56 55 86 95 113 150 66 136 66 130 66 976 0 725 -1 764 -20
838 -29 113 -73 190 -160 277 -55 56 -95 86 -150 113 -136 66 -129 66 -980 65
-720 0 -769 -1 -838 -19z m1022 -336 c21 -21 20 -65 -4 -152 -19 -68 -82 -211
-129 -291 -11 -19 -19 -37 -16 -39 7 -8 60 36 128 107 38 39 73 71 78 71 5 0
27 -12 49 -26 45 -30 74 -73 85 -124 4 -19 18 -48 31 -63 13 -16 24 -41 24
-56 0 -23 7 -31 40 -46 48 -21 105 -77 130 -126 10 -19 24 -63 30 -98 20 -113
-26 -208 -111 -226 -71 -16 -243 22 -324 71 -30 18 -55 29 -55 24 0 -11 66
-100 90 -121 17 -14 17 -20 4 -70 -17 -62 -14 -105 11 -169 11 -26 18 -74 19
-115 l1 -70 49 -25 c32 -16 60 -41 82 -73 72 -105 68 -186 -14 -238 -83 -52
-127 -60 -372 -66 -340 -9 -427 9 -510 103 -67 76 -75 110 -75 299 1 146 6
203 37 400 20 127 41 265 46 308 11 90 46 157 102 195 30 20 35 28 32 57 -3
33 13 59 50 81 8 5 38 44 67 86 29 42 85 110 125 150 99 101 270 257 283 258
1 0 9 -7 17 -16z"/>
</g>
</svg>
